<svg width="127" height="35" viewBox="0 0 127 35" fill="none" xmlns="http://www.w3.org/2000/svg">
<g clip-path="url(#clip0_24932_2492)">
<path d="M34.668 2.88451V10.5047H36.9472C37.47 10.5284 37.9922 10.4467 38.4832 10.2646C38.9742 10.0825 39.4241 9.80357 39.8067 9.44416C40.5028 8.69826 40.8904 7.71334 40.8904 6.68995C40.8904 5.66656 40.5028 4.68164 39.8067 3.93574C39.421 3.57736 38.9683 3.29985 38.475 3.11937C37.9816 2.93888 37.4576 2.85905 36.9333 2.88451H34.668ZM36.9333 3.99647C37.3012 3.97574 37.6696 4.03048 38.0159 4.15738C38.3622 4.28427 38.6793 4.48068 38.9479 4.73467C39.2012 4.98878 39.3989 5.29335 39.5284 5.62885C39.6579 5.96436 39.7163 6.32339 39.6999 6.68294C39.7174 7.05216 39.6568 7.4209 39.5219 7.76471C39.387 8.10852 39.1811 8.41954 38.9177 8.67712C38.6543 8.93471 38.3395 9.13298 37.9942 9.25878C37.6488 9.38458 37.2809 9.43503 36.9147 9.40679H35.8145V3.99647H36.9333Z" fill="#5D6371"/>
<path d="M44.7188 4.71134C44.341 4.70482 43.9659 4.77747 43.6175 4.92466C43.2691 5.07185 42.9549 5.29037 42.6949 5.56634C42.1632 6.1356 41.8672 6.8875 41.8672 7.66879C41.8672 8.45009 42.1632 9.20199 42.6949 9.77125C42.9586 10.0432 43.2738 10.2593 43.6218 10.4069C43.9697 10.5544 44.3435 10.6304 44.7211 10.6304C45.0987 10.6304 45.4725 10.5544 45.8205 10.4069C46.1684 10.2593 46.4836 10.0432 46.7473 9.77125C47.0224 9.49476 47.239 9.16515 47.3842 8.80224C47.5293 8.43932 47.6001 8.0506 47.5922 7.65945C47.6009 7.27028 47.5305 6.88343 47.3852 6.52268C47.2399 6.16192 47.0228 5.83488 46.7473 5.56167C46.4842 5.28888 46.1686 5.07282 45.8199 4.92664C45.4712 4.78045 45.0965 4.7072 44.7188 4.71134ZM44.7188 5.81863C44.9438 5.81849 45.1663 5.86677 45.3712 5.96024C45.5762 6.05372 45.7589 6.19022 45.9071 6.3606C46.2254 6.7228 46.3918 7.19505 46.3713 7.67814C46.3906 8.15963 46.2243 8.62999 45.9071 8.99101C45.7551 9.15906 45.5692 9.29263 45.3619 9.38285C45.1547 9.47307 44.9307 9.51787 44.7049 9.51428C44.4796 9.51872 44.2561 9.47427 44.0494 9.38398C43.8427 9.29368 43.6578 9.15966 43.5072 8.99101C43.1901 8.62999 43.0238 8.15963 43.043 7.67814C43.0226 7.19505 43.189 6.7228 43.5072 6.3606C43.6611 6.18736 43.8502 6.04934 44.0616 5.95585C44.273 5.86236 44.5018 5.81557 44.7327 5.81863H44.7188Z" fill="#5D6371"/>
<path d="M54.4245 8.49536L52.7626 4.71094H52.3681L50.7294 8.54208L49.309 4.84643H48.0742L50.4741 10.6399H50.8687L52.563 6.86479L54.262 10.6399H54.6566L57.0751 4.84643H55.8217L54.4245 8.49536Z" fill="#5D6371"/>
<path d="M60.79 4.71073C60.486 4.69816 60.1829 4.75367 59.9028 4.87324C59.6226 4.99282 59.3723 5.17348 59.17 5.4022V4.84622H58.0977V10.5135H59.2535V7.13089C59.242 6.9618 59.2653 6.79214 59.3221 6.63257C59.3788 6.47301 59.4678 6.32698 59.5833 6.20368C59.6988 6.08038 59.8385 5.98247 59.9934 5.9161C60.1483 5.84973 60.3153 5.81634 60.4836 5.81802C60.6496 5.81708 60.8139 5.85141 60.9658 5.91877C61.1177 5.98614 61.2537 6.08502 61.365 6.20895C61.4763 6.33287 61.5604 6.47906 61.6117 6.63793C61.663 6.7968 61.6804 6.96478 61.6627 7.13089V10.5135H62.8186V6.97204C62.8186 5.61245 62.0573 4.71073 60.79 4.71073Z" fill="#5D6371"/>
<path d="M64.4219 1.84668V10.5041H65.5777V1.84668H64.4219Z" fill="#5D6371"/>
<path d="M69.7618 4.71138C69.3839 4.70457 69.0088 4.77708 68.6603 4.92429C68.3118 5.0715 67.9977 5.29018 67.7378 5.56638C67.2062 6.13564 66.9102 6.88753 66.9102 7.66883C66.9102 8.45013 67.2062 9.20203 67.7378 9.77129C68.0012 10.0431 68.316 10.2591 68.6635 10.4066C69.0111 10.5541 69.3845 10.6301 69.7618 10.6301C70.139 10.6301 70.5124 10.5541 70.86 10.4066C71.2076 10.2591 71.5223 10.0431 71.7857 9.77129C72.0613 9.49503 72.2786 9.16556 72.4246 8.80267C72.5706 8.43977 72.6422 8.05093 72.6352 7.65948C72.643 7.27002 72.5717 6.88305 72.4256 6.52231C72.2795 6.16158 72.0618 5.83469 71.7857 5.5617C71.5241 5.28816 71.2095 5.07156 70.8613 4.9253C70.5132 4.77904 70.139 4.70623 69.7618 4.71138ZM69.7618 5.81867C69.9868 5.81822 70.2094 5.86637 70.4144 5.95986C70.6194 6.05336 70.8021 6.19002 70.9501 6.36063C71.2684 6.72284 71.4348 7.19509 71.4143 7.67817C71.4335 8.15966 71.2672 8.63002 70.9501 8.99104C70.7964 9.15641 70.6106 9.28824 70.4042 9.37837C70.1978 9.46849 69.9752 9.515 69.7502 9.515C69.5252 9.515 69.3026 9.46849 69.0962 9.37837C68.8897 9.28824 68.7039 9.15641 68.5502 8.99104C68.2356 8.62855 68.0696 8.15922 68.086 7.67817C68.0656 7.19509 68.232 6.72284 68.5502 6.36063C68.7036 6.18799 68.8919 6.05033 69.1024 5.95686C69.313 5.86339 69.5409 5.81627 69.771 5.81867H69.7618Z" fill="#5D6371"/>
<path d="M76.0367 4.71149C75.585 4.69593 75.1371 4.7994 74.7373 5.01164C74.3375 5.22389 73.9998 5.53755 73.7575 5.92157L74.4306 6.6364C74.5982 6.38947 74.8204 6.18501 75.0797 6.03909C75.3391 5.89317 75.6285 5.80976 75.9253 5.79542C76.085 5.77982 76.2461 5.80081 76.3966 5.85682C76.5471 5.91283 76.6831 6.00241 76.7943 6.11883C76.9055 6.23525 76.9891 6.3755 77.0387 6.52905C77.0884 6.68261 77.1029 6.8455 77.0811 7.0055V7.3746H75.5539C74.3331 7.3746 73.5625 8.01001 73.5625 8.99115C73.5625 9.9723 74.3099 10.6311 75.4425 10.6311C75.7696 10.65 76.0965 10.5909 76.3966 10.4586C76.6967 10.3262 76.9615 10.1244 77.1693 9.86951V10.5049H78.2509V7.07558C78.2509 5.55247 77.369 4.71149 76.0367 4.71149ZM75.6839 9.69664C75.1222 9.69664 74.7555 9.42099 74.7555 8.94443C74.7555 8.46787 75.0758 8.25296 75.7164 8.25296H77.109V8.35575C77.1088 8.53978 77.071 8.72181 76.9981 8.89058C76.9252 9.05935 76.8187 9.21127 76.6851 9.33694C76.5515 9.46262 76.3937 9.55939 76.2215 9.62126C76.0493 9.68313 75.8663 9.70878 75.6839 9.69664Z" fill="#5D6371"/>
<path d="M83.9622 5.52831C83.7481 5.25785 83.473 5.04262 83.1598 4.90044C82.8466 4.75825 82.5042 4.69321 82.1611 4.71069C81.8022 4.7031 81.4461 4.77587 81.1185 4.92374C80.791 5.0716 80.5002 5.29087 80.2671 5.56569C79.7885 6.16051 79.5273 6.90272 79.5273 7.66814C79.5273 8.43357 79.7885 9.17578 80.2671 9.7706C80.5009 10.0436 80.7922 10.2608 81.1198 10.4063C81.4474 10.5517 81.8031 10.6219 82.1611 10.6116C82.5295 10.6343 82.8974 10.5601 83.2287 10.3962C83.56 10.2324 83.8431 9.98457 84.0504 9.67716V10.4854H85.132V1.84668H83.9622V5.52831ZM82.356 9.51831C82.1326 9.52259 81.9109 9.4785 81.7058 9.38903C81.5008 9.29955 81.3173 9.16678 81.1677 8.9997C80.8459 8.63033 80.6794 8.14947 80.7035 7.6588C80.6806 7.17253 80.8472 6.69648 81.1677 6.33192C81.3161 6.17322 81.4947 6.04619 81.6929 5.95835C81.8911 5.87052 82.1048 5.82369 82.3213 5.82064C82.5378 5.81759 82.7527 5.85838 82.9533 5.94059C83.1538 6.02281 83.3359 6.14476 83.4887 6.29921C83.6554 6.48397 83.7826 6.70122 83.8625 6.93751C83.9423 7.17379 83.9731 7.42407 83.9529 7.67282C83.9993 8.88757 83.2473 9.51831 82.356 9.51831Z" fill="#5D6371"/>
<path d="M92.3958 4.71132C92.0173 4.705 91.6416 4.77772 91.2925 4.92488C90.9433 5.07204 90.6283 5.29045 90.3672 5.56632C89.8376 6.13662 89.543 6.88812 89.543 7.66877C89.543 8.44942 89.8376 9.20092 90.3672 9.77123C90.631 10.0432 90.9461 10.2593 91.2941 10.4068C91.6421 10.5544 92.0159 10.6304 92.3935 10.6304C92.771 10.6304 93.1448 10.5544 93.4928 10.4068C93.8408 10.2593 94.1559 10.0432 94.4197 9.77123C94.6953 9.49497 94.9126 9.1655 95.0586 8.80261C95.2046 8.43971 95.2762 8.05087 95.2692 7.65942C95.277 7.26996 95.2057 6.88299 95.0596 6.52225C94.9136 6.16152 94.6958 5.83463 94.4197 5.56164C94.1571 5.28942 93.8423 5.0737 93.4944 4.92754C93.1465 4.78137 92.7727 4.70781 92.3958 4.71132ZM92.3958 5.81861C92.6208 5.81846 92.8432 5.86675 93.0482 5.96022C93.2532 6.05369 93.4359 6.1902 93.5841 6.36058C93.9024 6.72278 94.0688 7.19503 94.0483 7.67811C94.0675 8.1596 93.9012 8.62996 93.5841 8.99098C93.4304 9.15635 93.2446 9.28818 93.0382 9.37831C92.8318 9.46843 92.6092 9.51494 92.3842 9.51494C92.1592 9.51494 91.9366 9.46843 91.7302 9.37831C91.5237 9.28818 91.3379 9.15635 91.1842 8.99098C90.8671 8.62996 90.7008 8.1596 90.72 7.67811C90.6996 7.19503 90.866 6.72278 91.1842 6.36058C91.3376 6.18793 91.5259 6.05027 91.7364 5.9568C91.947 5.86333 92.1749 5.81622 92.4051 5.81861H92.3958Z" fill="#5D6371"/>
<path d="M99.2908 4.71073C98.9867 4.69816 98.6837 4.75367 98.4035 4.87324C98.1234 4.99282 97.8731 5.17348 97.6707 5.4022V4.84622H96.5938V10.5135H97.7496V7.13089C97.7381 6.9618 97.7614 6.79214 97.8182 6.63257C97.8749 6.47301 97.9639 6.32698 98.0794 6.20368C98.1949 6.08038 98.3346 5.98247 98.4895 5.9161C98.6445 5.84973 98.8114 5.81634 98.9797 5.81802C99.1457 5.81708 99.31 5.85141 99.4619 5.91877C99.6138 5.98614 99.7498 6.08502 99.8611 6.20895C99.9724 6.33287 100.056 6.47906 100.108 6.63793C100.159 6.7968 100.176 6.96478 100.159 7.13089V10.5135H101.315V6.97204C101.315 5.61245 100.553 4.71073 99.2908 4.71073Z" fill="#5D6371"/>
<path d="M108.504 9.51898C107.798 9.51898 107.436 9.26668 107.436 8.53783V5.87472H109.066V4.84685H107.459V3.35645H106.28V4.84685H105.398V5.89808H106.28V8.66865C106.28 9.99553 107.028 10.6403 108.272 10.6403C108.594 10.6318 108.915 10.5895 109.228 10.5141V9.48627C108.987 9.51042 108.746 9.52134 108.504 9.51898Z" fill="#5D6371"/>
<path d="M113.11 4.71069C112.815 4.69942 112.522 4.75485 112.251 4.8729C111.98 4.99095 111.739 5.16862 111.546 5.39282V1.84668H110.395V10.5041H111.546V7.13552C111.534 6.96582 111.558 6.79555 111.615 6.63542C111.672 6.47529 111.761 6.32875 111.877 6.20502C111.993 6.08128 112.133 5.98302 112.289 5.91642C112.444 5.84981 112.612 5.8163 112.781 5.81798C112.947 5.81696 113.112 5.85141 113.264 5.91905C113.416 5.9867 113.552 6.08601 113.664 6.21046C113.775 6.33491 113.859 6.48168 113.91 6.64112C113.961 6.80056 113.978 6.96905 113.96 7.13552V10.5041H115.102V6.96265C115.102 5.62175 114.345 4.71069 113.11 4.71069Z" fill="#5D6371"/>
<path d="M121.675 7.30921C121.687 6.96537 121.629 6.62273 121.507 6.30167C121.384 5.98061 121.198 5.6877 120.96 5.44036C120.731 5.19837 120.454 5.00759 120.147 4.88041C119.84 4.75323 119.51 4.6925 119.178 4.70217C118.804 4.69648 118.433 4.77057 118.09 4.91955C117.747 5.06853 117.439 5.28903 117.186 5.56651C116.667 6.14185 116.379 6.89145 116.379 7.66897C116.379 8.44648 116.667 9.19609 117.186 9.77142C117.457 10.0495 117.782 10.2679 118.141 10.4127C118.499 10.5575 118.884 10.6255 119.271 10.6124C119.672 10.6155 120.07 10.5363 120.441 10.3797C120.811 10.2231 121.146 9.99226 121.425 9.70134L120.877 8.8697C120.458 9.28845 119.894 9.52784 119.303 9.53781C118.876 9.56459 118.455 9.42542 118.127 9.14899C117.799 8.87257 117.588 8.47996 117.539 8.05208H121.601C121.651 7.80761 121.675 7.55872 121.675 7.30921ZM119.131 5.73938C119.317 5.73 119.502 5.75983 119.675 5.82695C119.848 5.89408 120.006 5.99699 120.137 6.12906C120.268 6.26114 120.37 6.41943 120.437 6.59373C120.504 6.76804 120.533 6.95447 120.524 7.14102H117.586C117.635 6.76039 117.818 6.41009 118.102 6.15314C118.385 5.89619 118.75 5.74947 119.131 5.73938Z" fill="#5D6371"/>
<path d="M46.8622 30.81L40.8276 16.2891H40.0849L34.0781 30.81H36.3991L37.3693 28.4319H43.52L44.4855 30.81H46.8622ZM38.2188 26.4603L40.4887 20.5314L42.7355 26.4603H38.2188Z" fill="#5D6371"/>
<path d="M54.0011 19.9465C53.3153 19.9245 52.6347 20.0728 52.0194 20.3784C51.4041 20.684 50.873 21.1374 50.4731 21.6985V20.1847H48.4492V34.7057H50.617V29.5337C51.0223 30.037 51.5402 30.4366 52.1284 30.6997C52.7165 30.9628 53.3583 31.082 54.0011 31.0474C54.6752 31.0673 55.3453 30.9359 55.9627 30.6628C56.5802 30.3896 57.1295 29.9816 57.5708 29.4682C58.4777 28.346 58.9729 26.9436 58.9729 25.4969C58.9729 24.0503 58.4777 22.6479 57.5708 21.5256C57.1295 21.0123 56.5802 20.6043 55.9627 20.3311C55.3453 20.058 54.6752 19.9266 54.0011 19.9465ZM53.6529 28.973C53.251 28.9783 52.852 28.9025 52.4797 28.7501C52.1074 28.5976 51.7692 28.3716 51.4851 28.0853C51.172 27.7341 50.9322 27.3232 50.7799 26.877C50.6276 26.4308 50.5659 25.9583 50.5985 25.4876C50.5985 23.2123 51.9911 22.0256 53.6529 22.0256C54.0685 22.0168 54.481 22.0992 54.8617 22.267C55.2425 22.4348 55.5824 22.684 55.8579 22.9974C56.4663 23.6877 56.7842 24.589 56.7445 25.511C56.7838 26.4244 56.4655 27.3169 55.8579 27.9965C55.5826 28.3105 55.2429 28.5604 54.8621 28.729C54.4814 28.8976 54.0688 28.9809 53.6529 28.973Z" fill="#5D6371"/>
<path d="M66.6058 19.9465C65.92 19.9245 65.2394 20.0728 64.6241 20.3784C64.0088 20.684 63.4778 21.1374 63.0779 21.6985V20.1847H61.0586V34.7057H63.2264V29.5337C63.6307 30.0369 64.1477 30.4365 64.7352 30.6997C65.3226 30.9628 65.9637 31.082 66.6058 31.0474C67.2806 31.0673 67.9514 30.936 68.5696 30.6629C69.1878 30.3897 69.7379 29.9817 70.1801 29.4682C71.0871 28.346 71.5823 26.9436 71.5823 25.4969C71.5823 24.0503 71.0871 22.6479 70.1801 21.5256C69.7379 21.0122 69.1878 20.6042 68.5696 20.331C67.9514 20.0579 67.2806 19.9266 66.6058 19.9465ZM66.2576 28.973C65.8558 28.9778 65.457 28.9018 65.0847 28.7493C64.7125 28.5969 64.3742 28.3711 64.0898 28.0853C63.7767 27.7341 63.5369 27.3232 63.3846 26.877C63.2323 26.4308 63.1706 25.9583 63.2032 25.4876C63.2032 23.2123 64.5958 22.0256 66.2576 22.0256C66.6739 22.0171 67.087 22.0995 67.4684 22.2673C67.8499 22.4351 68.1907 22.6842 68.4672 22.9974C69.074 23.6887 69.3917 24.5893 69.3539 25.511C69.3907 26.424 69.0727 27.3156 68.4672 27.9965C68.1911 28.3106 67.8505 28.5605 67.469 28.7291C67.0875 28.8977 66.6742 28.9809 66.2576 28.973Z" fill="#5D6371"/>
<path d="M83.2854 16.2888C82.1692 16.2581 81.0812 16.6442 80.231 17.3727C79.8266 17.7148 79.5049 18.1449 79.2902 18.6306C79.0755 19.1163 78.9733 19.6447 78.9915 20.176C78.9915 22.0168 80.1706 23.1849 82.1713 24.138L83.6753 24.8762C85.1004 25.5676 85.6807 25.9975 85.6807 27.016C85.6807 28.2308 84.729 29.0063 83.3272 29.0063C81.9253 29.0063 80.7648 28.2494 79.7575 26.7357L78.207 27.9691C78.6984 28.9102 79.438 29.6967 80.3446 30.2424C81.2511 30.788 82.2895 31.0716 83.3457 31.0621C84.5304 31.1127 85.6906 30.7124 86.5951 29.9408C87.0215 29.5687 87.3599 29.1054 87.5856 28.5849C87.8113 28.0643 87.9185 27.4996 87.8995 26.9319C87.8995 25.0631 86.8458 23.9231 84.6501 22.8625L83.1183 22.1336C81.7257 21.4422 81.2197 21.0731 81.2197 20.1013C81.2197 18.9753 82.1481 18.3679 83.2854 18.3679C83.8735 18.3738 84.4495 18.5375 84.9538 18.8422C85.4581 19.1469 85.8725 19.5815 86.1542 20.1013L87.6814 18.8678C87.2474 18.0793 86.6098 17.4233 85.836 16.9694C85.0623 16.5154 84.181 16.2803 83.2854 16.2888Z" fill="#5D6371"/>
<path d="M94.7303 28.9921C93.4073 28.9921 92.7249 28.5248 92.7249 27.1559V22.1567H95.7376V20.1851H92.7249V17.3818H90.5385V20.1851H88.8906V22.1567H90.5385V27.3475C90.5385 29.8377 91.9311 31.0478 94.2754 31.0478C94.881 31.0339 95.4833 30.954 96.0718 30.8095V28.8846C95.473 28.95 95.0366 28.9921 94.7303 28.9921Z" fill="#5D6371"/>
<path d="M102.358 19.9471C101.649 19.9343 100.945 20.0702 100.292 20.3461C99.6379 20.622 99.0484 21.0319 98.5606 21.5497C97.5679 22.6178 97.0156 24.0257 97.0156 25.4882C97.0156 26.9508 97.5679 28.3588 98.5606 29.4269C99.0549 29.9366 99.6454 30.3416 100.298 30.6182C100.95 30.8947 101.65 31.0372 102.358 31.0372C103.065 31.0372 103.766 30.8947 104.418 30.6182C105.07 30.3416 105.661 29.9366 106.155 29.4269C106.671 28.9077 107.077 28.2893 107.35 27.6086C107.622 26.9278 107.756 26.1988 107.743 25.4649C107.758 24.7342 107.626 24.0078 107.353 23.3306C107.08 22.6533 106.672 22.0393 106.155 21.5263C105.663 21.0161 105.072 20.6128 104.419 20.3412C103.766 20.0697 103.064 19.9355 102.358 19.9471ZM102.358 22.0262C102.78 22.0252 103.197 22.1152 103.581 22.29C103.965 22.4649 104.308 22.7207 104.586 23.0401C105.205 23.7099 105.538 24.5972 105.514 25.5116C105.529 26.423 105.197 27.3054 104.586 27.9785C104.296 28.2857 103.947 28.5303 103.561 28.6975C103.174 28.8647 102.758 28.9509 102.337 28.9509C101.916 28.9509 101.5 28.8647 101.113 28.6975C100.726 28.5303 100.378 28.2857 100.088 27.9785C99.4907 27.3 99.1735 26.4176 99.2012 25.5116C99.1646 24.6028 99.4828 23.7157 100.088 23.0401C100.375 22.716 100.728 22.4578 101.123 22.2829C101.517 22.108 101.945 22.0204 102.376 22.0262H102.358Z" fill="#5D6371"/>
<path d="M114.789 20.0775C114.212 20.0562 113.639 20.1816 113.123 20.4421C112.607 20.7026 112.164 21.0898 111.836 21.5679V20.1663H109.812V30.7907H111.98V25.1421C111.98 23.2732 113.238 22.1987 114.951 22.1987H115.61V20.185C115.342 20.1132 115.066 20.0771 114.789 20.0775Z" fill="#5D6371"/>
<path d="M126.242 24.8148C126.26 24.1739 126.151 23.5358 125.92 22.9381C125.69 22.3404 125.343 21.795 124.9 21.334C124.473 20.8759 123.955 20.5141 123.379 20.2724C122.803 20.0308 122.182 19.9149 121.558 19.9324C120.861 19.9233 120.169 20.0631 119.529 20.3425C118.889 20.6219 118.315 21.0347 117.845 21.5536C116.867 22.6363 116.329 24.0485 116.336 25.5112C116.343 26.9739 116.894 28.3808 117.882 29.4542C118.388 29.9744 118.996 30.3834 119.667 30.6552C120.338 30.927 121.058 31.0558 121.781 31.0333C122.536 31.0391 123.283 30.8906 123.979 30.5966C124.675 30.3027 125.304 29.8695 125.829 29.3233L124.798 27.7675C124.013 28.556 122.955 29.0066 121.846 29.0243C121.044 29.0723 120.254 28.8081 119.639 28.2864C119.025 27.7646 118.633 27.0252 118.546 26.2211H126.056C126.167 25.7601 126.229 25.2888 126.242 24.8148ZM121.475 21.8713C121.818 21.857 122.161 21.9142 122.482 22.0394C122.802 22.1646 123.094 22.3551 123.338 22.599C123.582 22.8429 123.773 23.1349 123.9 23.4566C124.027 23.7784 124.086 24.1231 124.074 24.469H118.55C118.88 22.8898 120.036 21.8713 121.456 21.8713H121.475Z" fill="#5D6371"/>
<path d="M24.0168 17.5592C23.9796 13.5178 27.5308 11.5462 27.6932 11.4574C25.6833 8.69617 22.587 8.31305 21.4637 8.28969C18.8456 8.02805 16.3064 9.76608 14.9649 9.76608C13.6233 9.76608 11.553 8.31305 9.33411 8.36445C7.93256 8.39112 6.56021 8.77226 5.34341 9.47279C4.12661 10.1733 3.10446 11.1707 2.37111 12.3731C-0.646198 17.2975 1.60053 24.5206 4.49714 28.5106C5.94081 30.4636 7.6305 32.6361 9.8401 32.5614C12.0497 32.4866 12.8156 31.2625 15.4105 31.2625C18.0054 31.2625 18.7574 32.5614 21.018 32.5147C23.2787 32.4679 24.8013 30.557 26.1985 28.5947C27.2286 27.2194 28.0283 25.6839 28.5659 24.0488C28.5149 24.002 24.0586 22.3995 24.0168 17.5592ZM19.7554 5.66863C20.3774 4.97604 20.8525 4.16309 21.1518 3.27946C21.4511 2.39582 21.5683 1.46004 21.4962 0.529297C19.5882 0.706821 17.8095 1.57701 16.4921 2.97749C15.4244 4.15954 14.4589 6.09847 14.7096 7.9206C16.5942 8.05141 18.5485 7.0142 19.7554 5.66863Z" fill="#5D6371"/>
</g>
<defs>
<clipPath id="clip0_24932_2492">
<rect width="125.297" height="34.1719" fill="white" transform="translate(0.925781 0.53418)"/>
</clipPath>
</defs>
</svg>
