<svg width="134" height="33" viewBox="0 0 134 33" fill="none" xmlns="http://www.w3.org/2000/svg">
<g clip-path="url(#clip0_24932_2469)">
<path d="M16.5227 16.2395L1.17474 1.91406C1.01687 2.29259 0.929841 2.69684 0.917969 3.10674V29.5209C0.929841 29.9308 1.01687 30.335 1.17474 30.7135L16.5227 16.2395Z" fill="#5D6371"/>
<path d="M18.3164 16.2396L23.4339 21.0193L29.065 18.0309C30.8669 17.0767 30.8669 15.524 29.065 14.5654L23.3078 11.46L18.3164 16.2396Z" fill="#5D6371"/>
<path d="M17.4195 15.4158L22.1541 10.8747L4.1077 1.31534C3.34188 0.955288 2.57605 0.838259 2.0625 1.07679L17.4195 15.4158Z" fill="#5D6371"/>
<path d="M17.4216 17.0947L2.07812 31.5417C2.59168 31.7802 3.3575 31.6587 4.25396 31.3032L22.4265 21.7393L17.4216 17.0947Z" fill="#5D6371"/>
<path d="M41.8673 2.91806C41.3715 2.90896 40.8791 3.00217 40.421 3.19191C39.9629 3.38164 39.5489 3.66378 39.2049 4.02069C38.514 4.75031 38.1289 5.71662 38.1289 6.72106C38.1289 7.72551 38.514 8.69182 39.2049 9.42144C39.5501 9.77591 39.9646 10.0556 40.4226 10.2429C40.8807 10.4303 41.3725 10.5215 41.8673 10.5106C42.5414 10.5162 43.2044 10.3392 43.7858 9.99846C44.3672 9.6577 44.8454 9.16589 45.1694 8.57532V6.50955H41.8538V7.5537H44.0296V8.3413C43.8103 8.69849 43.4989 8.99016 43.128 9.18575C42.757 9.38133 42.3403 9.47361 41.9214 9.45294C41.571 9.46595 41.222 9.40356 40.8978 9.27C40.5737 9.13644 40.2821 8.93484 40.0428 8.67885C39.5534 8.1409 39.2918 7.43427 39.3131 6.70758C39.2879 5.99514 39.5416 5.30097 40.0203 4.77231C40.2532 4.52097 40.5374 4.32257 40.8538 4.19056C41.1701 4.05856 41.5112 3.99603 41.8538 4.0072C42.2759 3.99929 42.6929 4.10086 43.064 4.30201C43.435 4.50315 43.7476 4.797 43.9711 5.15486L44.7955 4.45276C44.4828 3.96492 44.0484 3.56683 43.535 3.29772C43.0215 3.02861 42.4468 2.89778 41.8673 2.91806Z" fill="#5D6371"/>
<path d="M46.5625 3.03926V10.3888H51.3466V9.33114H47.7022V7.00881H50.3511V5.97817H47.7022V4.08791H51.2205V3.03027L46.5625 3.03926Z" fill="#5D6371"/>
<path d="M51.9492 3.03926V4.08791H54.3323V10.3888H55.4675V4.08791H57.8596V3.03027L51.9492 3.03926Z" fill="#5D6371"/>
<path d="M61.3906 3.03906V10.3886H62.5258V3.03906H61.3906Z" fill="#5D6371"/>
<path d="M63.5938 3.03926V4.08791H65.9768V10.3888H67.112V4.08791H69.5041V3.03027L63.5938 3.03926Z" fill="#5D6371"/>
<path d="M76.3156 2.91785C75.8276 2.91234 75.3437 3.00741 74.8942 3.19713C74.4446 3.38685 74.039 3.66713 73.7028 4.02048C73.349 4.37361 73.0713 4.7954 72.887 5.25983C72.7026 5.72425 72.6153 6.22146 72.6306 6.72085C72.6177 7.21995 72.706 7.7165 72.8903 8.18059C73.0745 8.64467 73.3509 9.06668 73.7028 9.42122C74.4013 10.1185 75.3484 10.5101 76.3359 10.5101C77.3233 10.5101 78.2704 10.1185 78.9689 9.42122C79.3251 9.06898 79.6055 8.64779 79.793 8.18344C79.9804 7.7191 80.071 7.2214 80.0591 6.72085C80.0734 6.21999 79.9839 5.7216 79.7963 5.25691C79.6087 4.79223 79.3271 4.37127 78.9689 4.02048C78.6279 3.66228 78.2157 3.37918 77.7588 3.1893C77.3019 2.99943 76.8103 2.90698 76.3156 2.91785ZM76.3156 3.99798C76.6542 3.99158 76.9902 4.05777 77.3011 4.19208C77.6119 4.32639 77.8903 4.52572 78.1175 4.77661C78.6048 5.29604 78.8671 5.9867 78.8473 6.69835C78.8693 7.42113 78.6074 8.12384 78.1175 8.65614C77.8815 8.89935 77.599 9.09271 77.2867 9.22476C76.9745 9.35682 76.6389 9.42488 76.2998 9.42488C75.9607 9.42488 75.6251 9.35682 75.3129 9.22476C75.0006 9.09271 74.7181 8.89935 74.4821 8.65614C73.9963 8.12224 73.7392 7.41941 73.7658 6.69835C73.7388 5.98397 73.9964 5.28803 74.4821 4.76309C74.7169 4.51047 75.0034 4.31137 75.3221 4.17934C75.6408 4.04731 75.9843 3.98544 76.3291 3.99798H76.3156Z" fill="#5D6371"/>
<path d="M86.0997 7.99015L81.8111 2.91797H81.4102V10.389H82.5499V5.43831L86.861 10.5195H87.2169V3.03947H86.0817L86.0997 7.99015Z" fill="#5D6371"/>
<path d="M44.6668 15.826C43.7999 15.808 42.9387 15.9699 42.1377 16.3015C41.3367 16.633 40.6133 17.127 40.0133 17.7523C38.8033 19.0287 38.1289 20.7199 38.1289 22.4779C38.1289 24.236 38.8033 25.9271 40.0133 27.2036C40.6168 27.8228 41.3413 28.3114 42.1419 28.6389C42.9424 28.9664 43.8019 29.1259 44.6668 29.1074C45.8495 29.1146 47.012 28.8005 48.03 28.1989C49.048 27.5972 49.8833 26.7305 50.4465 25.6914V22.0909H44.6487V23.9181H48.4778V25.2998C48.0931 25.9253 47.5474 26.4361 46.8976 26.7789C46.2478 27.1217 45.5178 27.2839 44.7839 27.2486C44.1716 27.2718 43.5615 27.1632 42.9949 26.9303C42.4283 26.6973 41.9184 26.3455 41.4999 25.8984C40.6408 24.9611 40.1818 23.7258 40.2205 22.4554C40.1775 21.2093 40.6218 19.9954 41.4593 19.071C41.8656 18.6279 42.363 18.2778 42.9174 18.0448C43.4718 17.8117 44.0701 17.7012 44.6713 17.7208C45.4094 17.7122 46.1372 17.8941 46.7844 18.2489C47.4315 18.6037 47.976 19.1194 48.3652 19.7461L49.8113 18.5219C49.2626 17.6643 48.4994 16.9645 47.5972 16.4917C46.695 16.0189 45.6849 15.7895 44.6668 15.826Z" fill="#5D6371"/>
<path d="M56.0949 19.116C55.4517 19.1043 54.813 19.2258 54.2191 19.4729C53.6252 19.72 53.089 20.0873 52.6442 20.5517C51.7388 21.5092 51.2344 22.7765 51.2344 24.0937C51.2344 25.4109 51.7388 26.6782 52.6442 27.6357C53.0946 28.0941 53.6319 28.4583 54.2248 28.7069C54.8177 28.9555 55.4542 29.0835 56.0972 29.0835C56.7402 29.0835 57.3767 28.9555 57.9696 28.7069C58.5624 28.4583 59.0998 28.0941 59.5502 27.6357C60.0181 27.169 60.3869 26.6127 60.6346 26.0003C60.8823 25.3878 61.0038 24.7317 60.9917 24.0712C61.0054 23.4139 60.8846 22.7607 60.6368 22.1516C60.3889 21.5425 60.0191 20.9905 59.5502 20.5292C59.1002 20.072 58.5618 19.7109 57.9679 19.468C57.3739 19.225 56.7367 19.1053 56.0949 19.116ZM56.0949 20.9838C56.4773 20.982 56.8558 21.0613 57.2052 21.2165C57.5547 21.3716 57.8672 21.5991 58.1221 21.8839C58.6767 22.4876 58.9741 23.2835 58.951 24.1027C58.9685 24.9209 58.6719 25.7148 58.1221 26.3215C57.8627 26.6037 57.5462 26.8274 57.1936 26.978C56.841 27.1285 56.4603 27.2024 56.0769 27.1946C55.6935 27.2024 55.3129 27.1285 54.9603 26.978C54.6076 26.8274 54.2911 26.6037 54.0317 26.3215C53.4885 25.7123 53.1999 24.9181 53.2254 24.1027C53.1928 23.2861 53.4824 22.4894 54.0317 21.8839C54.2967 21.5911 54.6219 21.3592 54.985 21.2038C55.3481 21.0484 55.7406 20.9733 56.1355 20.9838H56.0949Z" fill="#5D6371"/>
<path d="M66.591 19.116C65.9478 19.1043 65.3091 19.2258 64.7152 19.4729C64.1213 19.72 63.5851 20.0873 63.1403 20.5517C62.2349 21.5092 61.7305 22.7765 61.7305 24.0937C61.7305 25.4109 62.2349 26.6782 63.1403 27.6357C63.5907 28.0941 64.128 28.4583 64.7209 28.7069C65.3138 28.9555 65.9503 29.0835 66.5933 29.0835C67.2363 29.0835 67.8728 28.9555 68.4657 28.7069C69.0585 28.4583 69.5959 28.0941 70.0462 27.6357C70.5148 27.1692 70.8843 26.6131 71.1328 26.0006C71.3812 25.3882 71.5035 24.732 71.4923 24.0712C71.5052 23.4136 71.3836 22.7602 71.1349 22.1512C70.8863 21.5422 70.5158 20.9902 70.0462 20.5292C69.5963 20.072 69.0579 19.7109 68.464 19.468C67.87 19.225 67.2328 19.1053 66.591 19.116ZM66.6136 20.9838C66.9955 20.9809 67.3736 21.0597 67.7225 21.215C68.0713 21.3702 68.3829 21.5983 68.6362 21.8839C69.1909 22.4876 69.4882 23.2835 69.4651 24.1027C69.4826 24.9209 69.186 25.7148 68.6362 26.3215C68.3721 26.5976 68.0547 26.8174 67.7032 26.9675C67.3517 27.1177 66.9733 27.1951 66.591 27.1951C66.2087 27.1951 65.8304 27.1177 65.4789 26.9675C65.1274 26.8174 64.81 26.5976 64.5458 26.3215C64.0046 25.7111 63.7163 24.9178 63.7395 24.1027C63.7103 23.2866 63.9994 22.4911 64.5458 21.8839C64.807 21.596 65.1263 21.3669 65.4828 21.2117C65.8393 21.0565 66.2247 20.9788 66.6136 20.9838Z" fill="#5D6371"/>
<path d="M80.0387 20.6913C79.6743 20.1719 79.1828 19.7544 78.611 19.4786C78.0393 19.2029 77.4064 19.078 76.7726 19.116C76.1719 19.0997 75.5746 19.2117 75.0207 19.4445C74.4668 19.6774 73.969 20.0257 73.5607 20.4662C72.7376 21.4249 72.2852 22.6462 72.2852 23.9092C72.2852 25.1722 72.7376 26.3935 73.5607 27.3522C73.9692 27.7925 74.467 28.1406 75.0209 28.3735C75.5747 28.6063 76.172 28.7184 76.7726 28.7024C77.3605 28.7318 77.9472 28.6253 78.4872 28.3911C79.0271 28.1569 79.5056 27.8014 79.8855 27.3522V28.0138C79.8855 29.814 78.7998 30.7411 77.1285 30.7411C75.9241 30.6951 74.7769 30.2155 73.8986 29.3909L72.8039 30.7907C73.3838 31.3715 74.0746 31.8302 74.8353 32.1394C75.5959 32.4487 76.411 32.6022 77.2321 32.5909C80.0296 32.5909 81.8496 30.8987 81.8496 27.8787V19.3276H80.0477L80.0387 20.6913ZM77.1285 26.8976C76.7552 26.9072 76.3839 26.8393 76.0381 26.6983C75.6923 26.5574 75.3794 26.3463 75.1194 26.0785C74.8449 25.7866 74.6321 25.4425 74.4936 25.0668C74.355 24.691 74.2936 24.2912 74.313 23.8912C74.2952 23.4988 74.3575 23.107 74.4961 22.7395C74.6347 22.3719 74.8468 22.0364 75.1194 21.7534C75.3794 21.4856 75.6923 21.2745 76.0381 21.1336C76.3839 20.9926 76.7552 20.9247 77.1285 20.9343C78.6467 20.9343 79.9035 21.9244 79.9035 23.8732C79.9309 24.285 79.8717 24.698 79.7297 25.0855C79.5877 25.4731 79.3661 25.8267 79.0791 26.1235C78.823 26.3772 78.5182 26.5766 78.183 26.7096C77.8478 26.8426 77.4891 26.9066 77.1285 26.8976Z" fill="#5D6371"/>
<path d="M83.7695 14.2861V28.8817H85.7381V14.2861H83.7695Z" fill="#5D6371"/>
<path d="M96.0945 23.49C96.113 22.9099 96.0145 22.332 95.8048 21.7908C95.595 21.2496 95.2784 20.756 94.8737 20.3396C94.4817 19.932 94.0086 19.6109 93.4849 19.397C92.9612 19.1831 92.3985 19.081 91.833 19.0974C91.1958 19.0866 90.5635 19.211 89.978 19.4624C89.3925 19.7137 88.867 20.0864 88.4363 20.5556C87.5481 21.5277 87.059 22.7984 87.0665 24.1145C87.074 25.4307 87.5776 26.6957 88.4769 27.6576C88.9372 28.1264 89.4901 28.4946 90.1004 28.7386C90.7107 28.9827 91.3652 29.0973 92.0222 29.0753C92.7069 29.0811 93.3857 28.9481 94.0176 28.6843C94.6494 28.4205 95.2211 28.0314 95.6981 27.5406L94.7611 26.1409C94.0408 26.8527 93.0713 27.2563 92.0582 27.266C91.3315 27.3113 90.6151 27.0767 90.0562 26.6104C89.4973 26.1441 89.1385 25.4817 89.0535 24.7592H95.9189C96.0204 24.3432 96.0793 23.9179 96.0945 23.49ZM91.7609 20.8436C92.073 20.8284 92.3849 20.8783 92.6766 20.99C92.9684 21.1016 93.2338 21.2728 93.4558 21.4925C93.6778 21.7122 93.8516 21.9756 93.9662 22.266C94.0808 22.5565 94.1337 22.8675 94.1214 23.1795H89.112C89.4139 21.7618 90.4635 20.8436 91.7609 20.8436Z" fill="#5D6371"/>
<path d="M101.863 16.0371V28.8819H103.854V23.9312H106.386C107.503 23.9794 108.595 23.5884 109.427 22.842C109.81 22.4737 110.112 22.029 110.312 21.5366C110.513 21.0442 110.607 20.5153 110.589 19.9842C110.61 19.4547 110.516 18.927 110.316 18.4364C110.115 17.9458 109.812 17.5037 109.427 17.1398C108.595 16.3922 107.504 15.9996 106.386 16.0461L101.863 16.0371ZM106.368 17.8689C107.774 17.8689 108.562 18.724 108.562 19.9887C108.562 21.2533 107.774 22.0905 106.368 22.0905H103.872V17.8689H106.368Z" fill="#5D6371"/>
<path d="M111.734 14.2861V28.8817H113.707V14.2861H111.734Z" fill="#5D6371"/>
<path d="M119.162 19.116C118.393 19.0892 117.63 19.2636 116.949 19.622C116.268 19.9803 115.692 20.5103 115.279 21.1592L116.424 22.3654C117.194 21.4113 118.054 20.9432 118.978 20.9432C120.235 20.9432 120.946 21.6633 120.946 22.9865V23.6076H118.338C116.257 23.6076 114.941 24.6787 114.941 26.335C114.941 27.9912 116.216 29.0938 118.149 29.0938C118.706 29.1255 119.263 29.026 119.775 28.8032C120.287 28.5804 120.739 28.2406 121.095 27.8112V28.8823H122.937V23.1035C122.937 20.5337 121.455 19.116 119.162 19.116ZM118.563 27.5186C117.608 27.5186 116.951 27.0686 116.951 26.2539C116.951 25.4393 117.496 25.0883 118.581 25.0883H120.946V25.2638C120.944 25.5701 120.88 25.8728 120.758 26.1537C120.636 26.4346 120.458 26.688 120.236 26.8986C120.013 27.1092 119.75 27.2727 119.463 27.3792C119.176 27.4858 118.87 27.5332 118.563 27.5186Z" fill="#5D6371"/>
<path d="M128.438 26.2941L125.794 19.3271H123.672L127.348 28.4544L126.974 29.3545C126.523 30.4212 125.884 30.7542 124.965 30.7542C124.816 30.7542 124.46 30.7542 123.879 30.6777V32.406C124.374 32.5403 124.885 32.6069 125.397 32.604C126.974 32.604 128.006 31.7849 128.776 29.9756L133.258 19.3317H131.159L128.438 26.2941Z" fill="#5D6371"/>
</g>
<defs>
<clipPath id="clip0_24932_2469">
<rect width="132.348" height="31.6484" fill="white" transform="translate(0.910156 0.951172)"/>
</clipPath>
</defs>
</svg>
