<svg width="28" height="28" viewBox="0 0 28 28" fill="none" xmlns="http://www.w3.org/2000/svg">
<path d="M3.39919 0.441406C1.34738 0.441406 0.00585938 1.78873 0.00585938 3.5596C0.00585938 5.29136 1.30741 6.67711 3.32046 6.67711H3.3594C5.45134 6.67711 6.75324 5.29136 6.75324 3.5596C6.71413 1.78873 5.45134 0.441406 3.39919 0.441406Z" fill="white"/>
<path d="M0.357422 9.14453H6.35574V27.1907H0.357422V9.14453Z" fill="white"/>
<path d="M21.0839 8.71875C17.848 8.71875 15.6782 11.7594 15.6782 11.7594V9.1423H9.67969V27.1885H15.6778V17.1108C15.6778 16.5713 15.7169 16.0326 15.8754 15.6468C16.3091 14.5695 17.2959 13.4534 18.953 13.4534C21.1235 13.4534 21.9916 15.1083 21.9916 17.5343V27.1885H27.9894V16.8411C27.9894 11.2981 25.03 8.71875 21.0839 8.71875Z" fill="white"/>
</svg>
