<svg width="30" height="29" viewBox="0 0 30 29" fill="none" xmlns="http://www.w3.org/2000/svg">
<path d="M15.1772 28.8699C15.0819 28.8699 14.9866 28.8699 14.8907 28.8695C12.6351 28.8749 10.5509 28.8176 8.52409 28.6943C6.66586 28.5812 4.96965 27.939 3.61857 26.8373C2.31491 25.7743 1.42466 24.3369 0.972612 22.5657C0.579188 21.0236 0.558331 19.5098 0.538352 18.0457C0.523862 16.9951 0.508933 15.7503 0.505859 14.4844C0.508933 13.2133 0.523862 11.9684 0.538352 10.9179C0.558331 9.45398 0.579188 7.94021 0.972612 6.39791C1.42466 4.62662 2.31491 3.18926 3.61857 2.12622C4.96965 1.02454 6.66586 0.382371 8.52431 0.269305C10.5511 0.146141 12.6357 0.0886197 14.8962 0.0941084C17.1524 0.0892784 19.2359 0.146141 21.2628 0.269305C23.121 0.382371 24.8172 1.02454 26.1683 2.12622C27.4722 3.18926 28.3622 4.62662 28.8142 6.39791C29.2077 7.93999 29.2285 9.45398 29.2485 10.9179C29.263 11.9684 29.2781 13.2133 29.281 14.4791V14.4844C29.2781 15.7503 29.263 16.9951 29.2485 18.0457C29.2285 19.5096 29.2079 21.0233 28.8142 22.5657C28.3622 24.3369 27.4722 25.7743 26.1683 26.8373C24.8172 27.939 23.121 28.5812 21.2628 28.6943C19.3218 28.8124 17.3279 28.8699 15.1772 28.8699ZM14.8907 26.6213C17.1096 26.6266 19.147 26.5706 21.1262 26.4503C22.5313 26.3649 23.7495 25.9089 24.7476 25.095C25.6701 24.3427 26.3055 23.3046 26.6359 22.0098C26.9635 20.7261 26.9823 19.3478 27.0006 18.0149C27.0148 16.9714 27.0298 15.7354 27.0328 14.4818C27.0298 13.228 27.0148 11.9921 27.0006 10.9486C26.9823 9.61578 26.9635 8.23748 26.6359 6.95358C26.3055 5.6587 25.6701 4.62069 24.7476 3.86831C23.7495 3.05468 22.5313 2.59868 21.1262 2.51328C19.147 2.39275 17.1096 2.3372 14.8959 2.34203C12.6774 2.33676 10.6398 2.39275 8.66065 2.51328C7.25556 2.59868 6.0373 3.05468 5.03925 3.86831C4.11672 4.62069 3.48136 5.6587 3.15094 6.95358C2.82338 8.23748 2.8045 9.61556 2.78628 10.9486C2.772 11.993 2.75708 13.2297 2.754 14.4844C2.75708 15.7336 2.772 16.9705 2.78628 18.0149C2.8045 19.3478 2.82338 20.7261 3.15094 22.0098C3.48136 23.3046 4.11672 24.3427 5.03925 25.095C6.0373 25.9087 7.25556 26.3647 8.66065 26.4501C10.6398 26.5706 12.6779 26.6268 14.8907 26.6213ZM14.8371 21.5072C10.9635 21.5072 7.81166 18.3557 7.81166 14.4818C7.81166 10.6079 10.9635 7.45634 14.8371 7.45634C18.711 7.45634 21.8626 10.6079 21.8626 14.4818C21.8626 18.3557 18.711 21.5072 14.8371 21.5072ZM14.8371 9.70448C12.203 9.70448 10.0598 11.8477 10.0598 14.4818C10.0598 17.1159 12.203 19.2591 14.8371 19.2591C17.4714 19.2591 19.6144 17.1159 19.6144 14.4818C19.6144 11.8477 17.4714 9.70448 14.8371 9.70448ZM22.6494 5.20819C21.7183 5.20819 20.9633 5.96299 20.9633 6.8943C20.9633 7.82561 21.7183 8.58041 22.6494 8.58041C23.5807 8.58041 24.3355 7.82561 24.3355 6.8943C24.3355 5.96299 23.5807 5.20819 22.6494 5.20819Z" fill="white"/>
</svg>
