<svg width="31" height="23" viewBox="0 0 31 23" fill="none" xmlns="http://www.w3.org/2000/svg">
<path d="M15.4827 22.5378C15.4801 22.5378 15.4773 22.5378 15.4745 22.5378C14.551 22.5315 6.38722 22.457 4.07424 21.8315C2.45778 21.3969 1.18175 20.1223 0.746049 18.5056C0.140838 16.2335 0.179364 11.859 0.183567 11.5097C0.179597 11.162 0.140604 6.75138 0.744181 4.46059C0.744882 4.45849 0.745349 4.45615 0.746049 4.45405C1.17684 2.8558 2.4816 1.5417 4.07028 1.10601C4.07424 1.10484 4.07845 1.10391 4.08242 1.10274C6.36924 0.501729 14.5492 0.428179 15.4745 0.421875H15.4911C16.4169 0.428179 24.6024 0.502663 26.8941 1.12912C28.5064 1.56248 29.7815 2.83548 30.2183 4.45008C30.8462 6.74251 30.7881 11.1627 30.7818 11.5359C30.7862 11.9034 30.8229 16.2386 30.2212 18.5222C30.2207 18.5245 30.22 18.5266 30.2195 18.5287C29.7836 20.1454 28.5078 21.42 26.8895 21.855C26.8874 21.8557 26.885 21.8562 26.8829 21.8569C24.5963 22.4577 16.4162 22.5312 15.4911 22.5378C15.4883 22.5378 15.4855 22.5378 15.4827 22.5378ZM3.05529 5.07374C2.52386 7.09578 2.57406 11.4502 2.57453 11.4941V11.5256C2.55865 12.7332 2.61445 16.2305 3.05552 17.8868C3.2694 18.68 3.89866 19.3083 4.69673 19.5229C6.40333 19.9845 13.0525 20.1298 15.4827 20.1468C17.9192 20.1298 24.5781 19.9885 26.2721 19.5453C27.0676 19.3301 27.6948 18.7038 27.91 17.9097C28.3516 16.2291 28.4069 12.7489 28.3908 11.5489C28.3908 11.5363 28.3908 11.5237 28.391 11.5111C28.413 10.289 28.3698 6.75091 27.9121 5.08121C27.9117 5.07957 27.9112 5.07794 27.911 5.07631C27.6962 4.27963 27.0667 3.6513 26.2686 3.43672C24.5786 2.97464 17.9187 2.82988 15.4827 2.81283C13.0478 2.82988 6.39539 2.97091 4.69627 3.41361C3.91337 3.63076 3.26986 4.2815 3.05529 5.07374ZM12.4354 16.3213V6.63813L20.8037 11.4798L12.4354 16.3213Z" fill="white"/>
</svg>
